<svg width="34" height="36" viewBox="0 0 34 36" fill="none" xmlns="http://www.w3.org/2000/svg">
<path fill-rule="evenodd" clip-rule="evenodd" d="M17 0L20.7217 1.59011L4.93855 8.33918C4.92349 8.34562 4.90864 8.35255 4.89403 8.35995L1.16638 6.76687L17 0ZM22.6568 2.4178L27.1739 4.34907L11.0969 11.2227C10.7917 11.3533 10.6066 11.6669 10.6398 11.997C10.6371 12.0266 10.6362 12.0563 10.6368 12.086V20.2116L8.98963 17.7404C8.77721 17.4225 8.36151 17.312 8.01913 17.4823L6.07821 18.4524V9.50507L22.6568 2.4178ZM29.106 5.17379L32.8336 6.76687L17 13.5337L13.2753 11.9436L29.0615 5.19456C29.0765 5.18812 29.0914 5.18119 29.106 5.17379H29.106ZM0 7.91792L4.55866 9.867V19.6806C4.55923 20.2441 5.15195 20.6108 5.65677 20.3599L8.09637 19.1407L10.7229 23.0774L10.726 23.0833C10.8096 23.2391 10.945 23.3608 11.1088 23.4274L11.1119 23.4305C11.1342 23.4394 11.157 23.4474 11.1801 23.4542C11.2256 23.4685 11.2723 23.4784 11.3196 23.4839C11.3492 23.4866 11.379 23.4875 11.4087 23.4869C11.4384 23.4867 11.4682 23.4846 11.4977 23.481C11.5186 23.4779 11.5394 23.474 11.56 23.4691C11.5749 23.4656 11.5898 23.4617 11.6045 23.4573C11.6175 23.4536 11.6304 23.4497 11.6431 23.4454C11.6862 23.4313 11.7279 23.4135 11.7678 23.392L11.7708 23.389C12.0436 23.238 12.1966 22.9357 12.1564 22.6265V13.1184L16.2402 14.8628V36L0 29.0551V7.91792ZM34 7.92089V29.0551L17.7598 36V14.8628L34 7.92089Z" fill="#7A60C4"/>
</svg>
