<svg width="26" height="26" viewBox="0 0 26 26" fill="none" xmlns="http://www.w3.org/2000/svg">
<path d="M18.0721 23C19.1821 23 20.0819 22.1392 20.0819 21.0772C20.0819 20.0153 19.1821 19.1545 18.0721 19.1545C16.9622 19.1545 16.0623 20.0153 16.0623 21.0772C16.0623 22.1392 16.9622 23 18.0721 23Z" fill="#FEFFF7"/>
<path d="M10.8369 23C11.9468 23 12.8467 22.1392 12.8467 21.0772C12.8467 20.0153 11.9468 19.1545 10.8369 19.1545C9.72687 19.1545 8.82705 20.0153 8.82705 21.0772C8.82705 22.1392 9.72687 23 10.8369 23Z" fill="#FEFFF7"/>
<path d="M21.6898 17.6163C21.6898 17.8203 21.6051 18.0159 21.4543 18.1601C21.3036 18.3044 21.0991 18.3854 20.8859 18.3854H9.29333C8.75008 18.3855 8.22271 18.2101 7.79666 17.8876C7.37061 17.5652 7.07083 17.1146 6.94588 16.6088L6.64843 15.309L4.3653 5.43374L4.01961 3.94168C3.9727 3.74178 4.01072 3.53225 4.1253 3.35916C4.23988 3.18608 4.42164 3.06364 4.63059 3.01876C4.83954 2.97389 5.05856 3.01026 5.23948 3.11988C5.4204 3.22949 5.54839 3.40338 5.59529 3.60328L8.29647 15.309L8.51352 16.2627C8.55737 16.429 8.65777 16.5767 8.79893 16.6825C8.94009 16.7883 9.114 16.8463 9.29333 16.8472H20.8859C21.0991 16.8472 21.3036 16.9282 21.4543 17.0725C21.6051 17.2167 21.6898 17.4123 21.6898 17.6163Z" fill="#FEFFF7"/>
<path d="M21.9149 8.22557L20.3794 13.6093C20.2377 14.0971 19.9332 14.5272 19.5123 14.834C19.0914 15.1409 18.5772 15.3077 18.048 15.309H6.64843L4.3653 5.43374C4.49774 5.35393 4.65093 5.3113 4.80745 5.31068H19.5835C19.9548 5.30998 20.3212 5.39131 20.6543 5.54831C20.9873 5.70532 21.278 5.93377 21.5036 6.21587C21.7292 6.49797 21.8837 6.82609 21.9551 7.17468C22.0264 7.52327 22.0126 7.88291 21.9149 8.22557Z" fill="#FEFFF7"/>
</svg>
