<svg width="58" height="30" viewBox="0 0 58 30" fill="none" xmlns="http://www.w3.org/2000/svg">
<rect x="0.5" y="0.5" width="57" height="29" rx="9.5" stroke="#7A60C4"/>
<path d="M21.0586 15.28L23.9786 19H21.0886L19.6486 17.04L18.1986 19H15.3086L18.2286 15.28L15.4086 11.74H18.2986L19.6486 13.54L20.9886 11.74H23.8786L21.0586 15.28ZM26.9574 11.75L26.7874 17.36L29.2174 11.75H32.8974C32.8508 12.8767 32.8274 14.0833 32.8274 15.37C32.8274 16.6633 32.8508 17.8733 32.8974 19H30.3274L30.5074 13.54L28.0874 19H24.5074C24.5608 17.7067 24.5874 16.4967 24.5874 15.37C24.5874 14.25 24.5608 13.0433 24.5074 11.75H26.9574ZM42.2869 13.84C41.2402 13.8067 40.2235 13.7867 39.2369 13.78V19H36.7369V13.78C35.7435 13.7867 34.7302 13.8067 33.6969 13.84V11.74H42.2869V13.84Z" fill="#7A60C4"/>
</svg>
