<svg width="36" height="34" viewBox="0 0 36 34" fill="none" xmlns="http://www.w3.org/2000/svg">
<path d="M35.1216 27.8665C30.643 27.1581 30.3018 26.4763 30.3018 26.4763C31.2231 20.7298 28.3653 13.4514 23.699 9.51116C17.4886 4.26932 8.04506 8.07674 0.691564 0.10773C-1.02312 -1.75171 -0.0250178 20.96 9.17965 29.5665C15.9104 35.8532 23.8355 33.9229 26.0108 32.8958C27.9814 31.9572 29.3634 30.2483 29.3634 30.2483C32.9548 31.3994 34.7292 31.3285 34.7292 31.3285C35.9918 31.4879 36.6316 28.1055 35.1216 27.8665ZM26.9236 28.256C15.1341 24.6346 6.27067 11.9196 6.27067 11.9196C6.27067 11.9196 14.0507 21.4558 27.7681 26.1044C27.7852 26.8216 27.3757 27.8487 26.9236 28.256Z" fill="#7A60C4"/>
</svg>
