<svg width="26" height="26" viewBox="0 0 26 26" fill="none" xmlns="http://www.w3.org/2000/svg">
<path d="M2.99988 11.6699C2.99988 6.88164 6.84022 2.99998 11.5775 2.99998C13.8524 2.99998 16.0342 3.91342 17.6428 5.53935C19.2514 7.16527 20.1552 9.3705 20.1552 11.6699C20.1552 16.4582 16.3148 20.3398 11.5775 20.3398C6.84022 20.3398 2.99988 16.4582 2.99988 11.6699Z" fill="#FEFFF7"/>
<path d="M20.0132 18.6543L22.5679 20.7164H22.6122C23.1291 21.2388 23.1291 22.0858 22.6122 22.6082C22.0954 23.1306 21.2574 23.1306 20.7406 22.6082L18.6206 20.1785C18.4202 19.9766 18.3075 19.7024 18.3075 19.4164C18.3075 19.1304 18.4202 18.8561 18.6206 18.6543C19.0071 18.2704 19.6267 18.2704 20.0132 18.6543Z" fill="#FEFFF7"/>
</svg>
