<svg width="36" height="36" viewBox="0 0 36 36" fill="none" xmlns="http://www.w3.org/2000/svg">
<path d="M28.6502 22.3943C28.1841 22.8698 27.9699 23.5576 28.0761 24.2321L29.6761 33.5535C29.8111 34.3436 29.4943 35.1431 28.8662 35.5997C28.2507 36.0734 27.4318 36.1302 26.7605 35.7513L18.7893 31.3747C18.5122 31.2194 18.2044 31.136 17.8894 31.1266H17.4017C17.2325 31.1531 17.0669 31.2099 16.9158 31.2971L8.94281 35.6945C8.54866 35.9029 8.10232 35.9768 7.66498 35.9029C6.59951 35.6907 5.88861 34.6221 6.06318 33.4948L7.66498 24.1733C7.77116 23.4932 7.55699 22.8016 7.09085 22.3185L0.591899 15.6874C0.0483702 15.1323 -0.140605 14.2986 0.107762 13.5465C0.348931 12.7962 0.96445 12.2487 1.70775 12.1255L10.6526 10.7595C11.3329 10.6856 11.9304 10.2498 12.2364 9.60567L16.1779 1.09887C16.2715 0.909413 16.392 0.735109 16.5378 0.587329L16.6998 0.454706C16.7844 0.356187 16.8816 0.274718 16.9896 0.208407L17.1857 0.132623L17.4917 0H18.2494C18.9261 0.0738898 19.5218 0.500177 19.8332 1.13677L23.8269 9.60567C24.1148 10.2252 24.6746 10.6553 25.3207 10.7595L34.2655 12.1255C35.0214 12.2392 35.6531 12.7886 35.9033 13.5465C36.1391 14.3062 35.9357 15.1398 35.3814 15.6874L28.6502 22.3943Z" fill="#7A60C4"/>
</svg>
