<svg width="30" height="30" viewBox="0 0 30 30" fill="none" xmlns="http://www.w3.org/2000/svg">
<rect width="30" height="30" rx="8" fill="#FCFCFA"/>
<path d="M8.09992 14.5965C12.3949 12.7619 15.2589 11.5524 16.6919 10.9681C20.7834 9.29959 21.6335 9.00977 22.1877 9.00009C22.3095 8.99809 22.582 9.0277 22.7586 9.16813C22.9076 9.2867 22.9486 9.44688 22.9683 9.5593C22.9879 9.67172 23.0123 9.92782 22.9929 10.1279C22.7712 12.4119 21.8118 17.9546 21.3237 20.5127C21.1172 21.5951 20.7105 21.958 20.3168 21.9936C19.4613 22.0707 18.8116 21.4392 17.9829 20.9067C16.6862 20.0733 15.9537 19.5545 14.695 18.7414C13.2404 17.8016 14.1834 17.2851 15.0124 16.4409C15.2293 16.22 18.999 12.8584 19.0719 12.5534C19.0811 12.5153 19.0895 12.3731 19.0034 12.298C18.9172 12.223 18.7901 12.2486 18.6983 12.2691C18.5683 12.298 16.4968 13.6403 12.4839 16.2961C11.8959 16.692 11.3633 16.8848 10.8862 16.8747C10.3601 16.8636 9.34822 16.5831 8.59598 16.3434C7.67333 16.0493 6.94002 15.8939 7.00388 15.3945C7.03714 15.1344 7.40248 14.8684 8.09992 14.5965Z" fill="#7A60C4"/>
</svg>
