<svg width="30" height="30" viewBox="0 0 30 30" fill="none" xmlns="http://www.w3.org/2000/svg">
<rect width="30" height="30" rx="8" fill="#FCFCFA"/>
<path fill-rule="evenodd" clip-rule="evenodd" d="M20.6 9.3C19.1 7.8 17.1 7 15 7C10.6 7 7 10.6 7 15C7 16.4 7.40001 17.8 8.10001 19L7 23L11.2 21.9C12.4 22.5 13.7 22.9 15 22.9C19.4 22.9 23 19.3 23 14.9C23 12.8 22.1 10.8 20.6 9.3ZM15 21.6C13.8 21.6 12.6 21.3 11.6 20.7L11.4 20.6L8.89999 21.3L9.60001 18.9L9.39999 18.6C8.69999 17.5 8.39999 16.3 8.39999 15.1C8.39999 11.5 11.4 8.5 15 8.5C16.8 8.5 18.4 9.2 19.7 10.4C21 11.7 21.6 13.3 21.6 15.1C21.6 18.6 18.7 21.6 15 21.6ZM18.6 16.6C18.4 16.5 17.4 16 17.2 16C17 15.9 16.9 15.9 16.8 16.1C16.7 16.3 16.3 16.7 16.2 16.9C16.1 17 16 17 15.8 17C15.6 16.9 15 16.7 14.2 16C13.6 15.5 13.2 14.8 13.1 14.6C13 14.4 13.1 14.3 13.2 14.2C13.3 14.1 13.4 14 13.5 13.9C13.6 13.8 13.6 13.7 13.7 13.6C13.8 13.5 13.7 13.4 13.7 13.3C13.7 13.2 13.3 12.2 13.1 11.8C13 11.5 12.8 11.5 12.7 11.5C12.6 11.5 12.5 11.5 12.3 11.5C12.2 11.5 12 11.5 11.8 11.7C11.6 11.9 11.1 12.4 11.1 13.4C11.1 14.4 11.8 15.3 11.9 15.5C12 15.6 13.3 17.7 15.3 18.5C17 19.2 17.3 19 17.7 19C18.1 19 18.9 18.5 19 18.1C19.2 17.6 19.2 17.2 19.1 17.2C19 16.7 18.8 16.7 18.6 16.6Z" fill="#7A60C4"/>
</svg>
